<svg version="1.0" xmlns="http://www.w3.org/2000/svg"
 width="800.000000pt" height="800.000000pt" viewBox="0 0 800.000000 800.000000"
 preserveAspectRatio="xMidYMid meet">

<g transform="translate(0.000000,800.000000) scale(0.100000,-0.100000)"
fill="#000000" stroke="none">
<path d="M1848 7560 c-20 -4 -54 -19 -75 -33 -59 -41 -1299 -1288 -1317 -1325
-21 -41 -23 -117 -3 -163 8 -20 34 -52 58 -71 82 -66 2048 -1448 2074 -1458
38 -14 90 -12 133 5 21 9 85 64 150 128 l112 112 155 -155 155 -155 -618 -620
c-340 -341 -635 -643 -655 -672 -49 -68 -110 -201 -133 -288 -24 -95 -24 -284
0 -380 10 -38 40 -116 68 -173 102 -209 300 -368 533 -428 95 -24 284 -24 380
0 87 23 220 83 288 132 29 21 331 316 672 656 l620 618 155 -155 155 -155
-112 -112 c-61 -62 -118 -127 -127 -145 -18 -36 -21 -99 -6 -138 12 -33 1431
-2047 1473 -2092 52 -55 151 -72 219 -37 37 18 1284 1258 1325 1316 33 49 43
103 28 162 -15 60 -36 81 -175 179 -63 44 -520 367 -1015 716 -495 349 -916
643 -935 653 -43 22 -111 23 -153 2 -18 -9 -83 -66 -145 -127 l-112 -112 -155
155 -155 155 689 690 c446 448 703 712 731 754 188 282 188 643 0 921 -250
368 -755 461 -1131 210 -42 -28 -308 -286 -754 -731 l-690 -689 -155 155 -155
155 112 112 c64 65 119 129 128 150 17 43 19 95 5 133 -11 30 -1428 2043
-1469 2088 -14 16 -33 33 -42 38 -30 16 -94 25 -131 19z m192 -731 c96 -138
177 -255 179 -261 4 -11 -768 -788 -782 -788 -9 0 -464 318 -500 348 -17 15
12 46 450 484 257 257 470 468 473 467 3 0 84 -113 180 -250z m718 -1018 c166
-236 302 -433 302 -438 0 -10 -422 -433 -433 -433 -4 0 -198 134 -429 298
-232 163 -426 300 -432 304 -7 5 127 146 334 353 190 190 347 345 350 345 3 0
141 -193 308 -429z m2822 67 c117 -35 220 -123 271 -233 59 -125 57 -255 -5
-380 -32 -63 -70 -105 -388 -423 l-353 -352 -308 308 -307 307 362 361 c332
329 369 363 427 389 100 43 205 51 301 23z m-1272 -2185 l-533 -533 -307 307
-308 308 532 532 533 533 307 -307 308 -308 -532 -532z m-1079 -1079 c-164
-164 -302 -294 -332 -312 -187 -113 -435 -64 -569 113 -102 134 -114 330 -31
475 14 25 154 174 312 333 l286 287 307 -307 308 -308 -281 -281z m2574 149
c231 -164 425 -301 431 -305 7 -5 -128 -146 -334 -353 -190 -190 -347 -345
-350 -345 -7 0 -610 857 -610 867 0 10 422 433 433 433 5 0 198 -134 430 -297z
m1020 -720 c139 -97 254 -178 257 -180 5 -4 -932 -943 -940 -942 -6 0 -353
495 -359 511 -4 11 768 788 782 788 5 0 122 -80 260 -177z"/>
</g>
</svg>
