<svg xmlns="http://www.w3.org/2000/svg" version="1.0" width="225" height="225" preserveAspectRatio="xMidYMid meet"><rect id="backgroundrect" width="100%" height="100%" x="0" y="0" fill="none" stroke="none"/>


<g class="currentLayer" style=""><title>Layer 1</title><g transform="translate(0,225) scale(0.10000000149011612,-0.10000000149011612) " fill="#000000" stroke="none" id="svg_1" class="">
<path d="M1303,2178.166666507721 c-3,-8 -1,-20 5,-26 c15,-15 43,8 35,28 c-7,19 -32,18 -40,-2 z" id="svg_2"/>
<path d="M2144,2179.166666507721 c-4,-9 -2,-21 4,-27 c15,-15 44,-1 40,19 c-4,23 -36,29 -44,8 z" id="svg_3"/>
<path d="M1197,2078.166666507721 c-16,-16 -7,-44 14,-44 c15,0 20,5 17,22 c-3,22 -19,33 -31,22 z" id="svg_4"/>
<path d="M1647,2078.166666507721 c-16,-16 -7,-44 14,-44 c15,0 20,5 17,22 c-3,22 -19,33 -31,22 z" id="svg_5"/>
<path d="M2034,2069.166666507721 c-7,-18 3,-35 21,-35 c21,0 28,19 15,35 c-16,19 -29,19 -36,0 z" id="svg_6"/>
<path d="M1075,1954.166666507721 c-9,-15 4,-30 26,-30 c12,0 19,7 19,20 c0,21 -33,29 -45,10 z" id="svg_7"/>
<path d="M1525,1954.166666507721 c-9,-15 4,-30 26,-30 c12,0 19,7 19,20 c0,21 -33,29 -45,10 z" id="svg_8"/>
<path d="M1920,1944.166666507721 c0,-13 7,-20 20,-20 c13,0 20,7 20,20 c0,13 -7,20 -20,20 c-13,0 -20,-7 -20,-20 z" id="svg_9"/>
<path d="M1165,1594.166666507721 c-247,-247 -259,-261 -242,-277 c16,-17 30,-5 278,243 c248,248 259,261 242,277 c-18,16 -31,4 -278,-243 z" id="svg_10"/>
<path d="M1472,1511.166666507721 c-327,-327 -342,-344 -325,-360 c18,-15 35,0 361,326 c327,327 342,344 325,360 c-18,15 -35,0 -361,-326 z" id="svg_11"/>
<path d="M559,1437.166666507721 c-373,-375 -398,-402 -433,-474 c-50,-105 -69,-201 -62,-314 c10,-163 65,-285 180,-401 c80,-79 148,-121 251,-155 c100,-33 270,-33 370,0 c132,43 164,68 462,365 c269,266 282,281 266,298 c-16,18 -30,5 -302,-265 c-251,-250 -294,-288 -351,-315 c-238,-112 -479,-72 -661,108 c-180,179 -220,425 -107,660 c27,58 74,109 426,462 c341,342 394,399 382,412 c-7,9 -15,16 -19,16 c-4,0 -185,-179 -402,-397 z" id="svg_12"/>
<path d="M1922,1552.166666507721 c2,-13 10,-23 18,-23 c8,0 16,10 18,23 c3,17 -2,22 -18,22 c-16,0 -21,-5 -18,-22 z" id="svg_13"/>
<path d="M1555,1204.166666507721 c-247,-247 -259,-261 -242,-277 c16,-17 30,-5 278,243 c248,248 259,261 242,277 c-18,16 -31,4 -278,-243 z" id="svg_14"/>
<path d="M497,1017.166666507721 c-106,-95 -121,-114 -158,-187 c-59,-120 -59,-137 -1,-296 c48,-134 49,-135 78,-132 c36,4 119,-47 136,-83 c11,-25 13,-25 134,-25 c98,0 141,5 220,26 c54,14 102,30 106,37 c4,7 30,69 58,138 l51,126 l-27,56 l-28,56 l24,57 c26,64 23,91 -24,197 c-21,49 -32,59 -95,96 l-70,42 l-57,-29 l-56,-28 l-81,28 c-45,15 -84,28 -87,27 c-3,0 -58,-48 -123,-106 zm222,22 l72,-24 l54,26 l54,27 l47,-25 c52,-27 76,-60 101,-136 c16,-52 16,-53 -10,-114 l-26,-61 l28,-56 l29,-57 l-47,-117 l-46,-117 l-102,-25 c-70,-18 -129,-26 -187,-26 c-82,0 -85,1 -105,29 c-24,33 -76,68 -130,87 c-34,11 -38,18 -73,115 c-21,57 -38,116 -38,130 c0,15 18,63 40,107 c36,71 53,92 143,171 c56,50 107,91 113,91 c6,0 43,-11 83,-25 z" id="svg_15"/>
<path d="M1922,1102.166666507721 c2,-13 10,-23 18,-23 c8,0 16,10 18,23 c3,17 -2,22 -18,22 c-16,0 -21,-5 -18,-22 z" id="svg_16"/>
<path d="M1812,1001.166666507721 c-15,-17 1,-42 23,-33 c18,6 17,37 -1,43 c-6,2 -16,-2 -22,-10 z" id="svg_17"/>
<path d="M1699,888.166666507721 c-9,-11 -9,-18 -1,-26 c14,-14 42,-3 42,16 c0,20 -27,27 -41,10 z" id="svg_18"/>
</g><path fill="#000000" fill-opacity="1" stroke="#000000" stroke-opacity="1" stroke-width="2" stroke-dasharray="none" stroke-linejoin="round" stroke-linecap="butt" stroke-dashoffset="" fill-rule="nonzero" opacity="1" marker-start="" marker-mid="" marker-end="" id="svg_21" d="M 79.58333017097593 121.66666183206789 C 79.58333017097593 120.41666188173842 64.99999741713219 117.08332868085988 64.58333333333334 116.66666666666667 C 64.99999741713219 117.08332868085988 79.58333017097593 122.91666178239736 79.58333017097593 121.66666183206789 z" style="color: rgb(0, 0, 0);"/><path fill="#000000" fill-opacity="1" stroke="#000000" stroke-opacity="1" stroke-width="2" stroke-dasharray="none" stroke-linejoin="round" stroke-linecap="butt" stroke-dashoffset="" fill-rule="nonzero" opacity="1" marker-start="" marker-mid="" marker-end="" id="svg_23" d="M 78.33333022064647 120.83332853184827 C 77.91666357053666 120.83332853184827 64.58333076702235 117.08332868085984 64.58333076702235 116.66666203075003 C 64.58333076702235 116.24999538064023 42.08333166109199 134.9999946355822 41.66666666666667 134.58333333333334 C 42.08333166109199 134.9999946355822 32.916665358675914 154.16666054063398 32.5 153.75 C 32.916665358675914 154.16666054063398 39.99999841054287 180.41665949755273 39.99999841054287 180.41665949755273 C 39.99999841054287 180.41665949755273 52.0833312637277 185.4166592988706 52.0833312637277 185.4166592988706 C 52.0833312637277 185.4166592988706 57.916664365265206 189.99999245007865 57.5 189.58333333333334 C 57.916664365265206 189.99999245007865 60.83333091603396 192.91665900084737 60.41666666666667 192.5 C 60.83333091603396 192.91665900084737 77.49999692042684 192.49999235073756 77.08333333333334 192.08333333333334 C 77.49999692042684 192.49999235073756 96.66666282547862 188.74999249974917 96.25 188.33333333333334 C 96.66666282547862 188.74999249974917 109.16666232877326 164.5833267933795 108.75 164.16666666666669 C 109.16666232877326 164.5833267933795 104.1666625274554 152.91666059030453 103.75 152.5 C 104.1666625274554 152.91666059030453 107.49999572833396 139.99999443690004 107.08333333333334 139.58333333333334 C 107.49999572833396 139.99999443690004 103.74999587734558 124.99999503294646 103.74999587734558 124.99999503294646 C 103.74999587734558 124.99999503294646 89.99999642372148 115.41666208042058 89.58333333333334 115 C 89.99999642372148 115.41666208042058 78.74999687075629 120.83332853184827 78.33333022064647 120.83332853184827 z" style="color: rgb(0, 0, 0);"/></g></svg>