<?xml version="1.0" standalone="no"?>
<!DOCTYPE svg PUBLIC "-//W3C//DTD SVG 20010904//EN"
 "http://www.w3.org/TR/2001/REC-SVG-20010904/DTD/svg10.dtd">
<svg version="1.0" xmlns="http://www.w3.org/2000/svg"
 width="24.000000pt" height="24.000000pt" viewBox="0 0 225.000000 225.000000"
 preserveAspectRatio="xMidYMid meet">

<g transform="translate(0.000000,225.000000) scale(0.100000,-0.100000)"
fill="#000000" stroke="none">
<path d="M1303 2174 c-3 -8 -1 -20 5 -26 15 -15 43 8 35 28 -7 19 -32 18 -40
-2z"/>
<path d="M2144 2175 c-4 -9 -2 -21 4 -27 15 -15 44 -1 40 19 -4 23 -36 29 -44
8z"/>
<path d="M1197 2074 c-16 -16 -7 -44 14 -44 15 0 20 5 17 22 -3 22 -19 33 -31
22z"/>
<path d="M1647 2074 c-16 -16 -7 -44 14 -44 15 0 20 5 17 22 -3 22 -19 33 -31
22z"/>
<path d="M2034 2065 c-7 -18 3 -35 21 -35 21 0 28 19 15 35 -16 19 -29 19 -36
0z"/>
<path d="M1075 1950 c-9 -15 4 -30 26 -30 12 0 19 7 19 20 0 21 -33 29 -45 10z"/>
<path d="M1525 1950 c-9 -15 4 -30 26 -30 12 0 19 7 19 20 0 21 -33 29 -45 10z"/>
<path d="M1920 1940 c0 -13 7 -20 20 -20 13 0 20 7 20 20 0 13 -7 20 -20 20
-13 0 -20 -7 -20 -20z"/>
<path d="M1165 1590 c-247 -247 -259 -261 -242 -277 16 -17 30 -5 278 243 248
248 259 261 242 277 -18 16 -31 4 -278 -243z"/>
<path d="M1472 1507 c-327 -327 -342 -344 -325 -360 18 -15 35 0 361 326 327
327 342 344 325 360 -18 15 -35 0 -361 -326z"/>
<path d="M559 1433 c-373 -375 -398 -402 -433 -474 -50 -105 -69 -201 -62
-314 10 -163 65 -285 180 -401 80 -79 148 -121 251 -155 100 -33 270 -33 370
0 132 43 164 68 462 365 269 266 282 281 266 298 -16 18 -30 5 -302 -265 -251
-250 -294 -288 -351 -315 -238 -112 -479 -72 -661 108 -180 179 -220 425 -107
660 27 58 74 109 426 462 341 342 394 399 382 412 -7 9 -15 16 -19 16 -4 0
-185 -179 -402 -397z"/>
<path d="M1922 1548 c2 -13 10 -23 18 -23 8 0 16 10 18 23 3 17 -2 22 -18 22
-16 0 -21 -5 -18 -22z"/>
<path d="M1555 1200 c-247 -247 -259 -261 -242 -277 16 -17 30 -5 278 243 248
248 259 261 242 277 -18 16 -31 4 -278 -243z"/>
<path d="M497 1013 c-106 -95 -121 -114 -158 -187 -59 -120 -59 -137 -1 -296
48 -134 49 -135 78 -132 36 4 119 -47 136 -83 11 -25 13 -25 134 -25 98 0 141
5 220 26 54 14 102 30 106 37 4 7 30 69 58 138 l51 126 -27 56 -28 56 24 57
c26 64 23 91 -24 197 -21 49 -32 59 -95 96 l-70 42 -57 -29 -56 -28 -81 28
c-45 15 -84 28 -87 27 -3 0 -58 -48 -123 -106z m222 22 l72 -24 54 26 54 27
47 -25 c52 -27 76 -60 101 -136 16 -52 16 -53 -10 -114 l-26 -61 28 -56 29
-57 -47 -117 -46 -117 -102 -25 c-70 -18 -129 -26 -187 -26 -82 0 -85 1 -105
29 -24 33 -76 68 -130 87 -34 11 -38 18 -73 115 -21 57 -38 116 -38 130 0 15
18 63 40 107 36 71 53 92 143 171 56 50 107 91 113 91 6 0 43 -11 83 -25z"/>
<path d="M1922 1098 c2 -13 10 -23 18 -23 8 0 16 10 18 23 3 17 -2 22 -18 22
-16 0 -21 -5 -18 -22z"/>
<path d="M1812 997 c-15 -17 1 -42 23 -33 18 6 17 37 -1 43 -6 2 -16 -2 -22
-10z"/>
<path d="M1699 884 c-9 -11 -9 -18 -1 -26 14 -14 42 -3 42 16 0 20 -27 27 -41
10z"/>
</g>
</svg>
